# xmcd
#
# Track frame offsets: 
#        150
#        19132
#        37222
#        57230
#        82998
#        105814
#        126069
#        147096
#        172929
#
# Disc length: 2609 seconds
#
# Revision: 1
# Processed by: cddbd v1.5.2PL0 Copyright (c) Steve Scherf et al.
# Submitted via: ExactAudioCopy v0.99pb3
#
DISCID=690a2f09
DTITLE=Obtest - Is Kartos i Karta (From generation to generation)
DYEAR=2005
DGENRE=Black Metal
TTITLE0=Paskutine akimirka (The last blink)
TTITLE1=Devyniaragis [The Nine Horned]
TTITLE2=Is Kartos i Karta (From generation to generation)
TTITLE3=Pergale (Victory)
TTITLE4=Griausmavaldys (Thunderlord)
TTITLE5=Audronasa (Stormbringer)
TTITLE6=Burtai (Spells)
TTITLE7=Pirmyn! (Forward!)
TTITLE8=Suminti juodi takai (Black treaded paths)
EXTD=
EXTT0=
EXTT1=
EXTT2=
EXTT3=
EXTT4=
EXTT5=
EXTT6=
EXTT7=
EXTT8=
PLAYORDER=
